<?xml version="1.0" encoding="UTF-8"?>
<svg width="73px" height="73px" viewBox="0 0 73 73" version="1.1" xmlns="http://www.w3.org/2000/svg" xmlns:xlink="http://www.w3.org/1999/xlink">
    <!-- Generator: Sketch 48.2 (47327) - http://www.bohemiancoding.com/sketch -->
    <title>discount</title>
    <desc>Created with Sketch.</desc>
    <defs></defs>
    <g id="Apple-TV" stroke="none" stroke-width="1" fill="none" fill-rule="evenodd" transform="translate(-570.000000, -3002.000000)">
        <g id="Group-12" transform="translate(392.000000, 2851.000000)" fill="#F8C51C" fill-rule="nonzero">
            <g id="Group-11" transform="translate(70.000000, 151.000000)">
                <g id="discount" transform="translate(108.000000, 0.000000)">
                    <path d="M72.8497661,44.84825 L69.6425009,36.4998741 L72.8452038,28.1469361 C73.2010597,27.2254214 72.9181999,26.176172 72.1517411,25.5557462 L65.2034268,19.9262949 L63.7982523,11.0897899 C63.6431357,10.1180937 62.8766768,9.35168537 61.9049165,9.19657893 L53.0678288,7.79149707 L47.4380062,0.843641019 C46.8175395,0.0772327343 45.7727831,-0.201046464 44.8466454,0.150223999 L36.4977189,3.35727771 L28.1442301,0.154785954 C27.2226546,-0.201046464 26.1778982,0.0772327343 25.5574316,0.848202973 L19.927609,7.79605903 L11.0905212,9.20114088 C10.1187609,9.35624732 9.35230208,10.1226556 9.19718542,11.0943518 L7.7920109,19.9308569 L0.843696655,25.5603082 C0.0772378276,26.1807339 -0.201059723,27.2254214 0.150233906,28.1469361 L3.35293686,36.4998741 L0.150233906,44.852812 C-0.201059723,45.7743267 0.0772378276,46.8190142 0.843696655,47.4394399 L7.7920109,53.0688913 L9.19718542,61.9053963 C9.35230208,62.8770925 10.1187609,63.6435008 11.0905212,63.7986072 L19.927609,65.2036891 L25.5574316,72.1515451 C26.1824605,72.9225154 27.2272169,73.2053565 28.1487924,72.8449622 L36.4977189,69.6424704 L44.8512076,72.8449622 C45.1158184,72.9453252 45.394116,72.9955066 45.6678513,72.9955066 C46.3385027,72.9955066 47.0000297,72.6989796 47.4425684,72.1515451 L53.072391,65.2036891 L61.9094788,63.7986072 C62.8812391,63.6435008 63.6476979,62.8770925 63.8028146,61.9053963 L65.2079891,53.0688913 L72.1563033,47.4394399 C72.9227622,46.8190142 73.2010597,45.7697647 72.8497661,44.84825 Z M65.0619969,37.3164638 L67.9864023,44.9349271 L61.6403057,50.0716874 C61.2023293,50.4275198 60.910345,50.9293348 60.8236621,51.4858932 L59.5416685,59.546866 L51.480164,60.8287751 C50.9235689,60.9154523 50.4217209,61.2074173 50.065865,61.6453649 L44.9378905,67.991043 L37.3189248,65.0668305 C37.054314,64.9710294 36.7760164,64.916286 36.4977189,64.916286 C36.2194213,64.916286 35.9411238,64.9664675 35.6810752,65.0668305 L28.0621095,67.991043 L22.9250105,61.6453649 C22.5691546,61.2074173 22.0673066,60.9154523 21.5107115,60.8287751 L13.449207,59.546866 L12.1672134,51.4858932 C12.0805305,50.9293348 11.7885462,50.4275198 11.3505697,50.0716874 L5.00447314,44.9394891 L7.92887855,37.3210258 C8.12961777,36.7918391 8.12961777,36.207909 7.92431629,35.6832843 L5.00447314,28.060259 L11.3505697,22.9234987 C11.7885462,22.5676663 12.0805305,22.0658514 12.1672134,21.509293 L13.449207,13.4483201 L21.5107115,12.166411 C22.0673066,12.0797339 22.5691546,11.7877688 22.9250105,11.3498213 L28.0575473,5.00870509 L35.676513,7.93291765 C36.2011723,8.13364363 36.7851409,8.13364363 37.3098002,7.93291765 L44.928766,5.00870509 L50.065865,11.3543832 C50.4217209,11.7923308 50.9235689,12.0842959 51.480164,12.170973 L59.5416685,13.4528821 L60.8236621,21.5138549 C60.910345,22.0704133 61.2023293,22.5722283 61.6403057,22.9280607 L67.9864023,28.064821 L65.0619969,35.6832843 C64.8612577,36.207909 64.8612577,36.7918391 65.0619969,37.3164638 Z" id="Shape"></path>
                    <path d="M30,18 C26.1406667,18 23,21.1406667 23,25 C23,28.8593333 26.1406667,32 30,32 C33.8593333,32 37,28.8593333 37,25 C37,21.1406667 33.8593333,18 30,18 Z M30,27.3333333 C28.712,27.3333333 27.6666667,26.288 27.6666667,25 C27.6666667,23.712 28.712,22.6666667 30,22.6666667 C31.288,22.6666667 32.3333333,23.712 32.3333333,25 C32.3333333,26.288 31.288,27.3333333 30,27.3333333 Z" id="Shape"></path>
                    <path d="M43,41 C39.1406667,41 36,44.1406667 36,48 C36,51.8593333 39.1406667,55 43,55 C46.8593333,55 50,51.8593333 50,48 C50,44.1406667 46.8593333,41 43,41 Z M43,50.3333333 C41.712,50.3333333 40.6666667,49.288 40.6666667,48 C40.6666667,46.712 41.712,45.6666667 43,45.6666667 C44.288,45.6666667 45.3333333,46.712 45.3333333,48 C45.3333333,49.288 44.288,50.3333333 43,50.3333333 Z" id="Shape"></path>
                    <path d="M49.0582496,18.4178369 C48.0502309,17.6977324 46.6417048,17.9317663 45.9216915,18.9399126 L23.4212742,50.4444841 C22.6967608,51.4526304 22.9307651,52.8613348 23.9387838,53.5814393 C24.3347911,53.8649804 24.7937997,54 25.2483081,54 C25.9503211,54 26.643334,53.6714523 27.079842,53.0593635 L49.5802593,21.554792 C50.3047727,20.5421451 50.0662683,19.1379413 49.0582496,18.4178369 Z" id="Shape"></path>
                </g>
            </g>
        </g>
    </g>
</svg>