<svg xmlns="http://www.w3.org/2000/svg" xmlns:xlink="http://www.w3.org/1999/xlink" width="97" height="99" viewBox="0 0 97 99">
    <defs>
        <path id="a" d="M56.125 19.7l1.882-.998 2.092.296 2.203-.938 2.344.54L66.5 18l1.854.6 2.344-.54 2.203.938 2.092-.296 1.882.998 2.128-.109 2.13 1.386 2.829.145 1.87 1.514 1.929.272 1.403 1.353 2.344.541 1.568 1.81 2.01.65 1.255 1.722 1.96.835 1.087 1.813 2.115 1.12 1.055 2.163 1.634 1.063.852 2.216 2.212 1.791.617 2.314 1.521 1.466.373 2.098 1.395 1.61.183 2.105 1.41 1.935v2.406l1.002 1.67-.168 1.943 1.054 2.162-.419 2.357.76 1.972-.66 2.477.66 2.477-.76 1.972.42 2.357-1.055 2.162.168 1.942-1.002 1.671v2.406l-1.41 1.935-.183 2.106-1.395 1.61-.373 2.097-1.521 1.466-.617 2.314-2.212 1.79-.852 2.217-1.634 1.063-1.055 2.162-2.115 1.121-1.087 1.813-1.96.835-1.254 1.721-2.01.652-1.569 1.809-2.344.54-1.403 1.354-1.93.272-1.87 1.514-2.827.145-2.131 1.386-2.128-.109-1.882.998-2.092-.296-2.203.938-2.344-.54-1.854.6-1.854-.6-2.344.54-2.203-.938-2.092.296-1.882-.998-2.128.109-2.13-1.386-2.829-.145-1.87-1.514-1.929-.272-1.403-1.353-2.344-.541-1.568-1.81-2.01-.65-1.255-1.722-1.96-.835-1.087-1.813-2.115-1.12-1.055-2.163-1.634-1.063-.852-2.216-2.212-1.791-.617-2.314-1.521-1.466-.373-2.098-1.395-1.61-.183-2.105-1.41-1.935v-2.406l-1.002-1.67.168-1.943-1.054-2.162.419-2.357-.76-1.972.66-2.477-.66-2.477.76-1.972-.42-2.357 1.055-2.162-.168-1.942 1.002-1.671v-2.406l1.41-1.935.183-2.106 1.395-1.61.373-2.097 1.521-1.466.617-2.314 2.212-1.79.852-2.217 1.634-1.063 1.055-2.162 2.115-1.121 1.087-1.813 1.96-.835 1.254-1.721 2.01-.652 1.569-1.809 2.344-.54 1.403-1.354 1.93-.272 1.87-1.514 2.827-.145 2.131-1.386 2.128.109z"/>
        <path id="c" d="M33.232 57.008H45.72v4.144h-7.28v3.556h2.352c2.072 0 3.63.495 4.676 1.484 1.045.99 1.568 2.51 1.568 4.564 0 1.232-.182 2.25-.546 3.052-.364.803-.845 1.442-1.442 1.918a5.228 5.228 0 0 1-2.03.994 9.6 9.6 0 0 1-2.31.28h-7.476V57.008zm6.216 16.212c.84 0 1.423-.187 1.75-.56.327-.373.49-.99.49-1.848 0-.952-.2-1.577-.602-1.876-.401-.299-.957-.448-1.666-.448h-.98v4.732h1.008zm14.616 4.088c-1.325 0-2.445-.182-3.36-.546a4.748 4.748 0 0 1-2.212-1.778c-.56-.821-.961-1.885-1.204-3.192-.243-1.307-.364-2.903-.364-4.788 0-1.867.121-3.458.364-4.774.243-1.316.644-2.39 1.204-3.22a4.895 4.895 0 0 1 2.212-1.82c.915-.383 2.035-.574 3.36-.574 1.325 0 2.445.191 3.36.574.915.383 1.652.99 2.212 1.82.56.83.961 1.904 1.204 3.22.243 1.316.364 2.907.364 4.774 0 1.885-.121 3.481-.364 4.788-.243 1.307-.644 2.37-1.204 3.192a4.748 4.748 0 0 1-2.212 1.778c-.915.364-2.035.546-3.36.546zm0-3.444c.392 0 .705-.103.938-.308.233-.205.41-.57.532-1.092.121-.523.2-1.227.238-2.114.037-.887.056-2.002.056-3.346 0-1.344-.019-2.46-.056-3.346-.037-.887-.117-1.591-.238-2.114-.121-.523-.299-.887-.532-1.092-.233-.205-.546-.308-.938-.308-.392 0-.705.103-.938.308-.233.205-.41.57-.532 1.092-.121.523-.2 1.227-.238 2.114a82.128 82.128 0 0 0-.056 3.346c0 1.344.019 2.46.056 3.346.037.887.117 1.591.238 2.114.121.523.299.887.532 1.092.233.205.546.308.938.308zm7.616-16.856h5.208v7.336h3.192v-7.336h5.208V77H70.08v-8.232h-3.192V77H61.68V57.008zm17.248 20.188c-.355 0-.742-.023-1.162-.07-.42-.047-.733-.089-.938-.126v-3.892c.15.037.336.06.56.07.224.01.42.014.588.014.69 0 1.19-.205 1.498-.616a4.26 4.26 0 0 0 .686-1.4l-5.32-14.168h5.824l2.044 8.736h.084l1.708-8.736h5.628l-4.676 14.336a25.605 25.605 0 0 1-1.008 2.604c-.336.728-.742 1.335-1.218 1.82a4.377 4.377 0 0 1-1.736 1.078c-.681.233-1.535.35-2.562.35zm16.576.112c-1.456 0-2.65-.182-3.584-.546a4.421 4.421 0 0 1-2.184-1.778c-.523-.821-.882-1.885-1.078-3.192-.196-1.307-.294-2.903-.294-4.788 0-1.904.117-3.519.35-4.844.233-1.325.63-2.399 1.19-3.22a4.748 4.748 0 0 1 2.212-1.778c.915-.364 2.044-.546 3.388-.546 1.176 0 2.175.15 2.996.448.821.299 1.489.723 2.002 1.274.513.55.887 1.213 1.12 1.988.233.775.35 1.647.35 2.618v1.26h-5.04v-1.12c0-1.139-.112-1.913-.336-2.324-.224-.41-.588-.616-1.092-.616-.392 0-.705.103-.938.308-.233.205-.41.57-.532 1.092-.121.523-.2 1.227-.238 2.114a82.128 82.128 0 0 0-.056 3.346c0 1.344.019 2.46.056 3.346.037.887.117 1.591.238 2.114.121.523.299.887.532 1.092.233.205.546.308.938.308.317 0 .579-.08.784-.238.205-.159.364-.425.476-.798.112-.373.191-.873.238-1.498.047-.625.07-1.414.07-2.366h5.04v1.484c0 1.419-.187 2.571-.56 3.458-.373.887-.868 1.582-1.484 2.086-.616.504-1.32.85-2.114 1.036-.793.187-1.61.28-2.45.28z"/>
        <filter id="b" width="120.3%" height="167.7%" x="-10.2%" y="-24.2%" filterUnits="objectBoundingBox">
            <feOffset dy="2" in="SourceAlpha" result="shadowOffsetOuter1"/>
            <feGaussianBlur in="shadowOffsetOuter1" result="shadowBlurOuter1" stdDeviation="2"/>
            <feColorMatrix in="shadowBlurOuter1" values="0 0 0 0 0.324059311 0 0 0 0 0.324059311 0 0 0 0 0.324059311 0 0 0 0.5 0"/>
        </filter>
    </defs>
    <g fill="none" fill-rule="evenodd">
        <g transform="rotate(30 89.222 24.412)">
            <use fill="#F8C51C" xlink:href="#a"/>
            <path stroke="#FFF" d="M54.134 20.099l-2.108 1.37-2.8.144-1.85 1.498-1.907.27-1.386 1.336-2.32.536-1.553 1.791-1.988.644-1.24 1.702-1.938.826-1.075 1.792-2.094 1.11-1.044 2.14-1.614 1.05-.843 2.19-2.19 1.773-.61 2.29-1.504 1.452-.369 2.073-1.38 1.591-.18 2.083-1.396 1.916v2.381l-.99 1.651.166 1.918-1.044 2.14.415 2.335-.75 1.95.652 2.449-.652 2.449.75 1.95-.415 2.334 1.044 2.14-.166 1.919.99 1.651v2.381l1.396 1.916.18 2.083 1.38 1.591.369 2.073 1.504 1.451.61 2.29 2.19 1.773.843 2.19 1.614 1.05 1.044 2.14 2.094 1.11 1.075 1.793 1.938.826 1.24 1.702 1.988.644 1.553 1.791 2.32.536 1.386 1.336 1.907.27 1.85 1.498 2.8.143 2.108 1.371 2.103-.107 1.86.986 2.07-.292 2.181.929 2.32-.536 1.832.593 1.832-.593 2.32.536 2.18-.93 2.07.293 1.861-.986 2.103.107 2.108-1.37 2.8-.144 1.85-1.498 1.907-.27 1.386-1.336 2.32-.536 1.553-1.791 1.988-.644 1.24-1.702 1.938-.826 1.075-1.792 2.094-1.11 1.044-2.14 1.614-1.05.843-2.19 2.19-1.773.61-2.29 1.504-1.452.369-2.073 1.38-1.591.18-2.083 1.396-1.916v-2.381l.99-1.651-.166-1.918 1.044-2.14-.415-2.335.75-1.95-.652-2.449.652-2.449-.75-1.95.415-2.334-1.044-2.14.166-1.919-.99-1.651v-2.381l-1.396-1.916-.18-2.083-1.38-1.591-.369-2.073-1.504-1.451-.61-2.29-2.19-1.773-.843-2.19-1.614-1.05-1.044-2.14-2.094-1.11-1.075-1.793-1.938-.826-1.24-1.702-1.988-.644-1.553-1.791-2.32-.536-1.386-1.336-1.907-.27-1.85-1.498-2.8-.143-2.108-1.371-2.103.107-1.86-.986-2.07.292-2.181-.929-2.32.536-1.832-.593-1.832.593-2.32-.536-2.18.93-2.07-.293-1.861.986-2.103-.107z"/>
        </g>
        <g transform="rotate(30 90.394 24.874)">
            <use fill="#000" filter="url(#b)" xlink:href="#c"/>
            <use fill="#D0021B" xlink:href="#c"/>
        </g>
    </g>
</svg>
