<?xml version="1.0" encoding="UTF-8"?>
<svg width="158px" height="158px" viewBox="0 0 158 158" version="1.1" xmlns="http://www.w3.org/2000/svg" xmlns:xlink="http://www.w3.org/1999/xlink">
    <!-- Generator: Sketch 48.2 (47327) - http://www.bohemiancoding.com/sketch -->
    <title>hands</title>
    <desc>Created with Sketch.</desc>
    <defs>
        <circle id="path-1" cx="79.5" cy="79.5" r="67.5"></circle>
        <filter x="-5.2%" y="-5.2%" width="110.4%" height="110.4%" filterUnits="objectBoundingBox" id="filter-2">
            <feMorphology radius="5" operator="erode" in="SourceAlpha" result="shadowSpreadInner1"></feMorphology>
            <feGaussianBlur stdDeviation="4" in="shadowSpreadInner1" result="shadowBlurInner1"></feGaussianBlur>
            <feOffset dx="0" dy="1" in="shadowBlurInner1" result="shadowOffsetInner1"></feOffset>
            <feComposite in="shadowOffsetInner1" in2="SourceAlpha" operator="arithmetic" k2="-1" k3="1" result="shadowInnerInner1"></feComposite>
            <feColorMatrix values="0 0 0 0 0.97254902   0 0 0 0 0.77254902   0 0 0 0 0.109803922  0 0 0 1 0" type="matrix" in="shadowInnerInner1"></feColorMatrix>
        </filter>
        <circle id="path-3" cx="79" cy="79" r="75"></circle>
        <filter x="-4.7%" y="-4.7%" width="109.3%" height="109.3%" filterUnits="objectBoundingBox" id="filter-4">
            <feMorphology radius="5" operator="erode" in="SourceAlpha" result="shadowSpreadInner1"></feMorphology>
            <feGaussianBlur stdDeviation="4" in="shadowSpreadInner1" result="shadowBlurInner1"></feGaussianBlur>
            <feOffset dx="0" dy="1" in="shadowBlurInner1" result="shadowOffsetInner1"></feOffset>
            <feComposite in="shadowOffsetInner1" in2="SourceAlpha" operator="arithmetic" k2="-1" k3="1" result="shadowInnerInner1"></feComposite>
            <feColorMatrix values="0 0 0 0 0.97254902   0 0 0 0 0.77254902   0 0 0 0 0.109803922  0 0 0 1 0" type="matrix" in="shadowInnerInner1"></feColorMatrix>
        </filter>
        <circle id="path-5" cx="79" cy="79" r="79"></circle>
        <filter x="-4.4%" y="-4.4%" width="108.9%" height="108.9%" filterUnits="objectBoundingBox" id="filter-6">
            <feMorphology radius="5" operator="erode" in="SourceAlpha" result="shadowSpreadInner1"></feMorphology>
            <feGaussianBlur stdDeviation="4" in="shadowSpreadInner1" result="shadowBlurInner1"></feGaussianBlur>
            <feOffset dx="0" dy="1" in="shadowBlurInner1" result="shadowOffsetInner1"></feOffset>
            <feComposite in="shadowOffsetInner1" in2="SourceAlpha" operator="arithmetic" k2="-1" k3="1" result="shadowInnerInner1"></feComposite>
            <feColorMatrix values="0 0 0 0 0.97254902   0 0 0 0 0.77254902   0 0 0 0 0.109803922  0 0 0 1 0" type="matrix" in="shadowInnerInner1"></feColorMatrix>
        </filter>
    </defs>
    <g id="Apple-TV" stroke="none" stroke-width="1" fill="none" fill-rule="evenodd" transform="translate(-489.000000, -909.000000)">
        <g id="Group-34" transform="translate(2.000000, 909.000000)">
            <g id="hands" transform="translate(487.000000, 0.000000)">
                <g id="Oval">
                    <use fill="#FFFFFF" fill-rule="evenodd" xlink:href="#path-1"></use>
                    <use fill="black" fill-opacity="1" filter="url(#filter-2)" xlink:href="#path-1"></use>
                    <circle stroke="#F8C51C" stroke-width="1" cx="79.5" cy="79.5" r="67"></circle>
                </g>
                <g id="Oval">
                    <use fill="#FFFFFF" fill-rule="evenodd" xlink:href="#path-3"></use>
                    <use fill="black" fill-opacity="1" filter="url(#filter-4)" xlink:href="#path-3"></use>
                    <circle stroke="#F8C51C" stroke-width="1" cx="79" cy="79" r="74.5"></circle>
                </g>
                <g id="Oval">
                    <use fill="#FFFFFF" fill-rule="evenodd" xlink:href="#path-5"></use>
                    <use fill="black" fill-opacity="1" filter="url(#filter-6)" xlink:href="#path-5"></use>
                    <circle stroke="#F8C51C" stroke-width="1" cx="79" cy="79" r="78.5"></circle>
                </g>
                <circle id="Oval" fill="#F8C51C" cx="79" cy="79" r="60"></circle>
                <g id="handshake" transform="translate(40.000000, 53.000000)"></g>
                <path d="M119,66.4214395 C118.998148,65.22368 118.645426,64.0089704 117.865455,63.0076786 L111.60594,55.0090554 C110.557493,53.6795471 108.962217,53.0026196 107.368022,53 C106.419251,53 105.453198,53.2428495 104.599628,53.7744679 L98.4962611,57.5666795 C97.8543862,57.9754863 96.7539409,58.2560884 95.6909898,58.2488461 C94.865193,58.2523902 94.0671696,58.0873574 93.5402458,57.8274036 L87.5634025,54.9361698 C86.5993557,54.4726601 85.524678,54.2826643 84.4439828,54.2808152 C82.8919106,54.2880576 81.3200885,54.6689737 80.0570143,55.5431394 L79.3595925,56.031766 C78.8021179,55.7539376 77.9502449,55.3306461 76.9852723,54.8511108 C75.8280458,54.2845134 74.4673018,54.0559945 73.0928253,54.0515259 C71.8511985,54.05507 70.6098802,54.2461444 69.5199271,54.7059559 L65.4489586,56.440727 C64.7864079,56.7276469 63.7325603,56.9150231 62.6858104,56.9104003 C61.6390605,56.914869 60.5870644,56.7274928 59.9245137,56.440727 L55.8498421,54.7050313 C55.1065941,54.3885257 54.3121195,54.2532327 53.5247426,54.2523081 C52.6180943,54.2532327 51.7168463,54.4316716 50.8791686,54.7705206 C50.042571,55.1112186 49.2659949,55.6141759 48.6475731,56.3043553 L41.2289798,64.6016094 C40.4067318,65.5186127 39.998308,66.6733804 40.0000053,67.8101193 C39.998308,69.1656693 40.5790814,70.5255339 41.6992766,71.4785948 L48.619491,77.3747826 L45.3366709,80.7948613 C44.4317198,81.7380602 43.981173,82.9609367 43.981173,84.170099 C43.9794757,85.4566157 44.4911241,86.7556138 45.5045459,87.7120647 L46.1704912,88.3439972 C46.7980165,88.9384853 47.5520653,89.3166278 48.3411395,89.5183347 C47.945368,90.2453421 47.7290438,91.0424616 47.7307411,91.841122 C47.7290438,93.1285632 48.2406922,94.4266367 49.2522625,95.3841663 L49.2505652,95.3832418 L49.9185163,96.017948 C50.8692936,96.9180011 52.101817,97.3662556 53.3161333,97.3654851 C53.968809,97.3664097 54.6222562,97.2354312 55.2363578,96.9790216 C55.4519105,97.8522627 55.8970569,98.6823579 56.5972561,99.3457253 L57.2652072,99.9804315 C58.2159845,100.880485 59.446502,101.328739 60.6628242,101.327969 C61.6136015,101.328893 62.5686991,101.049062 63.3909471,100.505886 C63.6314959,101.278659 64.0436228,102.01106 64.6709939,102.606318 L65.338945,103.241025 C66.2877164,104.141078 67.5202398,104.589332 68.7348647,104.588562 C70.0283353,104.589486 71.3346126,104.08206 72.2994308,103.076146 L75.2008291,100.050389 L79.1426511,103.693748 C80.0861764,104.567759 81.2972525,105.002608 82.4927446,104.999988 C83.8061195,105.002762 85.1310667,104.477307 86.0978909,103.443656 L86.7271135,102.770427 C87.2702384,102.187804 87.6248126,101.498241 87.8304904,100.778476 L89.3574121,102.185955 C90.3026347,103.056422 91.5120136,103.489421 92.7058084,103.488497 C94.0208806,103.489421 95.3495309,102.963967 96.3172808,101.929545 L96.9429546,101.257086 C97.6655268,100.486162 98.0722533,99.5312524 98.197851,98.5560023 C98.6008744,98.65909 99.0092982,98.7290479 99.4212708,98.7290479 C100.736343,98.7290479 102.06129,98.2045177 103.029966,97.1710206 L103.657491,96.4985618 C104.534515,95.5598315 104.970866,94.3559084 104.969015,93.1689354 C104.969015,92.8005007 104.916091,92.4339151 104.834313,92.0716441 C105.925038,91.9272596 106.982589,91.4414066 107.786784,90.578952 L108.416007,89.9057227 C109.29303,88.9669924 109.72753,87.7630692 109.72753,86.5751717 C109.729227,85.2681608 109.201532,83.9492848 108.160182,82.9883652 L106.98336,81.9027849 L117.604848,70.1748198 C118.558402,69.1189793 118.998303,67.7598852 119,66.4214395 Z M49.568571,87.0228098 C49.0058504,87.0211148 48.4554735,86.8201784 48.0254481,86.4132207 L47.3584227,85.7812881 C46.8969208,85.3455151 46.6690244,84.7656658 46.6671728,84.1702531 C46.6690244,83.6118226 46.8691474,83.0666441 47.2812743,82.6371888 L54.0049145,75.6301496 C54.4429633,75.1737282 55.0274398,74.9452093 55.6270374,74.9444388 C56.1880608,74.9453634 56.7365862,75.1470702 57.1701604,75.5549525 L57.8344084,76.1878096 C57.8344084,76.1878096 58.5221095,77.203432 58.5238068,77.7996151 C58.5221095,78.2460205 58.3874083,78.680869 58.1261837,79.0574705 C58.1038107,79.0798139 50.8692936,86.6095343 50.8692936,86.6095343 C50.4850944,86.8810449 50.0308444,87.0208066 49.568571,87.0228098 Z M54.9384105,94.0119744 C54.5012875,94.4665467 53.9177368,94.694141 53.3181391,94.6959901 C52.7554185,94.6950655 52.2067388,94.4933587 51.7750162,94.0864009 L51.1070651,93.4524652 L51.1053678,93.4515407 C50.647569,93.0176167 50.4176667,92.4359183 50.4176667,91.8405056 C50.4176667,91.2820751 50.6196413,90.7368966 51.0297623,90.3074413 C51.0297623,90.3074413 59.99225,80.9902503 60.0677012,80.9004145 C60.4960293,80.488988 61.0479492,80.2764947 61.6179218,80.2755702 C62.1806425,80.2764947 62.7293221,80.477277 63.1610447,80.8851593 L63.8289959,81.5198655 C64.2884919,81.9537895 64.516697,82.5347174 64.5183943,83.1309005 C64.5165427,83.6893311 64.3147224,84.2352801 63.9042927,84.6647353 L54.9384105,94.0119744 Z M62.2840214,97.9733793 C61.8478241,98.4290302 61.2644277,98.6569327 60.6646758,98.6586277 C60.1019551,98.6577032 59.5532754,98.4559964 59.1215528,98.048114 L58.4517501,97.4141783 C57.9922541,96.9793298 57.7623517,96.3985559 57.7623517,95.8031433 C57.7623517,95.3048088 57.9320783,94.8214212 58.2568732,94.4189321 L64.49849,87.9130011 C64.9195661,87.5337799 65.4472614,87.3339222 65.9940895,87.3339222 C66.5568101,87.3348467 67.1054898,87.535629 67.5372124,87.9435113 L68.2070151,88.5782175 C68.6648139,89.0121414 68.8947162,89.5930694 68.8964135,90.188328 C68.8945619,90.7478371 68.6908901,91.2937862 68.282312,91.7221628 L62.2840214,97.9733793 Z M74.143587,97.286744 L70.3562161,101.234281 C69.9198646,101.689623 69.3355424,101.917526 68.7359448,101.919221 C68.1732241,101.918296 67.6245444,101.716589 67.1928218,101.308707 L66.5248707,100.674771 C66.0670719,100.240847 65.8371696,99.659149 65.8354723,99.0637364 C65.8371696,98.5042272 66.0391442,97.9582782 66.4495738,97.5306721 L70.2352474,93.5832896 C70.6732962,93.1279468 71.2577727,92.8992739 71.8573703,92.8983493 C72.4183937,92.8992739 72.9687706,93.1000561 73.4004933,93.508863 L74.070296,94.1427987 C74.5280948,94.5767227 74.7561455,95.1576506 74.7579971,95.7529092 C74.7558369,96.3122642 74.5538623,96.8582133 74.143587,97.286744 Z M107.045542,86.5787158 C107.04477,87.1269762 106.848042,87.6639879 106.449493,88.0906695 L105.821968,88.7631283 C105.383919,89.2311066 104.789567,89.4677924 104.181021,89.4687169 C103.628946,89.4677924 103.088444,89.2740984 102.659499,88.8780811 L92.0847635,79.1115569 L90.2561914,81.0668342 L101.575101,91.5387929 C102.046478,91.9745659 102.283323,92.5662804 102.286872,93.1704763 C102.283323,93.720894 102.088446,94.2569811 101.690823,94.6838168 L101.06515,95.3562756 C100.627101,95.8242539 100.032749,96.0600151 99.4242025,96.0618643 C98.8721283,96.0601692 98.3299291,95.8655507 97.9043784,95.4719989 L87.3268654,85.7056288 L85.5001448,87.660906 L94.8872575,96.330139 C95.3396559,96.7631383 95.5714098,97.3395976 95.5714098,97.931158 C95.5714098,98.4798807 95.3765328,99.0167382 94.9789098,99.4426494 L94.3513845,100.115108 C93.9150329,100.583086 93.3189841,100.819772 92.70874,100.821467 C92.1548143,100.819772 91.6144667,100.625154 91.1872187,100.231602 L81.8189302,91.5938039 L81.8172329,91.5938039 L81.8155357,91.5921089 L79.9923639,93.5509302 L79.9942155,93.5526252 L80.0292409,93.5857551 L84.7214085,97.9105096 C85.1370843,98.3371912 85.3524827,98.8840648 85.35418,99.4497376 C85.3524827,99.9956866 85.159303,100.529925 84.76168,100.95599 L84.1341547,101.629219 C83.6961059,102.097197 83.1036059,102.332034 82.4967563,102.333883 C81.9446822,102.332188 81.4041802,102.138494 80.9769322,101.743247 L76.8916141,97.9653665 C77.2471141,97.2688693 77.4455399,96.5130465 77.4455399,95.7546042 C77.4472371,94.4680876 76.9355887,93.1709386 75.9240185,92.2126386 L75.2542158,91.5779324 C74.3054444,90.6786497 73.0746183,90.2296247 71.8601477,90.2313197 C71.7658723,90.2313197 71.6708254,90.2528927 71.5784016,90.2582859 C71.5784016,90.2359425 71.5836477,90.2125205 71.5836477,90.1901771 C71.585345,88.9036605 70.0621263,86.6463623 70.0621263,86.6463623 L69.3941752,86.0135052 C68.684101,85.3410464 67.8177241,84.9216072 66.9166304,84.7530302 C67.1024039,84.2277296 67.20748,83.680856 67.20748,83.1330578 C67.20748,81.8465412 66.6975289,80.5483136 65.6859586,79.5910922 L65.0180075,78.956386 C64.0672302,78.0563329 62.8367127,77.6071538 61.6220878,77.6080784 C61.480289,77.6080784 61.3403417,77.6367395 61.1993144,77.6493751 C61.1607402,76.4140171 60.6625156,75.1795837 59.6930684,74.2598067 L59.6930684,74.2588822 L59.0269688,73.6269496 C58.0761916,72.7259719 56.8456741,72.2767929 55.6310491,72.2777174 C54.3355727,72.2767929 53.0313013,72.7842188 52.066483,73.7901334 L50.4793854,75.4441602 L43.4486945,69.4555169 C42.9433723,69.0234421 42.6910969,68.4263344 42.6892453,67.8132012 C42.6909426,67.2994574 42.8660695,66.7965002 43.2394679,66.37891 L50.6579069,58.08181 C50.9523053,57.7518984 51.3877311,57.4534216 51.8976822,57.2461675 C52.4076333,57.0390674 52.9865552,56.9253473 53.5278286,56.9261178 C53.9992055,56.9261178 54.4415746,57.0113308 54.7953773,57.1637281 L58.8681974,58.8992697 C60.0163203,59.3825031 61.349291,59.5806658 62.6888963,59.5849804 C64.0300447,59.5805118 65.361318,59.3823491 66.5095953,58.8992697 L70.5805638,57.1644986 C71.2080891,56.8911388 72.155009,56.7216373 73.0966827,56.7251814 C74.1380323,56.7188636 75.1810791,56.9341306 75.7860771,57.2424693 C76.1702763,57.4333896 76.5347255,57.6146022 76.8730985,57.7839496 L72.7212785,60.6986055 C71.3872278,61.6354867 70.6682044,63.1254052 70.670056,64.6288838 C70.6683587,65.6240118 70.9842044,66.6370146 71.6270051,67.4966956 L71.6253078,67.4948465 L72.1736789,68.2307913 C73.2150284,69.6133074 74.8388486,70.3241352 76.4618974,70.3276794 C77.3784207,70.3276794 78.3120711,70.0963868 79.1441941,69.5978982 L81.6271392,68.1087502 C82.1335415,67.799487 82.8982368,67.6040979 83.6890082,67.607642 C84.6181839,67.6022488 85.5544573,67.8766872 86.1173323,68.2898087 L92.9864744,73.2079727 C94.5152477,74.3017198 97.0052905,76.3304991 98.3851674,77.6071538 L106.335931,84.9485733 C106.80669,85.3845005 107.04369,85.9735953 107.045542,86.5787158 Z M115.611332,68.3901228 L105.01947,80.086653 L100.210499,75.6472538 C98.7042533,74.258574 96.2203824,72.233493 94.5542848,71.0383531 L87.6869943,66.1201891 C86.5226701,65.2964116 85.0971214,64.9403043 83.6877738,64.9350652 C82.4884243,64.9386093 81.2801256,65.1996416 80.2370788,65.8198632 L77.7559852,67.3090112 C77.3753348,67.53753 76.9266395,67.6541779 76.4605087,67.6551025 C75.6273056,67.6578761 74.7934854,67.2695635 74.3285889,66.6374769 L73.7819151,65.9024566 L73.7800636,65.9006075 C73.489214,65.5089049 73.3537413,65.0695877 73.3517355,64.6248774 C73.3552843,63.9524185 73.6658839,63.2998377 74.2674874,62.8757756 L81.6087779,57.72447 C82.2435552,57.2655831 83.3728539,56.9436843 84.4455257,56.9516971 C85.1906253,56.948153 85.9023967,57.0977766 86.3898205,57.3381606 L92.3665096,60.2293944 C93.3854861,60.7180211 94.5354606,60.9178788 95.6923785,60.9206525 C97.1788745,60.9134102 98.6815717,60.5907409 99.9196497,59.831374 L106.024868,56.038392 C106.414468,55.7955425 106.882141,55.6699573 107.36972,55.6699573 C108.193819,55.6682623 109.019616,56.0411657 109.48729,56.6498303 L115.746805,64.6484535 C116.107705,65.1065699 116.316778,65.752833 116.316778,66.4226722 C116.317858,67.1717149 116.05293,67.9087384 115.611332,68.3901228 Z" id="Shape" fill="#FFFFFF" fill-rule="nonzero"></path>
            </g>
        </g>
    </g>
</svg>