<?xml version="1.0" encoding="UTF-8"?>
<svg width="158px" height="158px" viewBox="0 0 158 158" version="1.1" xmlns="http://www.w3.org/2000/svg" xmlns:xlink="http://www.w3.org/1999/xlink">
    <!-- Generator: Sketch 48.2 (47327) - http://www.bohemiancoding.com/sketch -->
    <title>big-money</title>
    <desc>Created with Sketch.</desc>
    <defs>
        <circle id="path-1" cx="77.5" cy="79.5" r="67.5"></circle>
        <filter x="-5.2%" y="-5.2%" width="110.4%" height="110.4%" filterUnits="objectBoundingBox" id="filter-2">
            <feMorphology radius="5" operator="erode" in="SourceAlpha" result="shadowSpreadInner1"></feMorphology>
            <feGaussianBlur stdDeviation="4" in="shadowSpreadInner1" result="shadowBlurInner1"></feGaussianBlur>
            <feOffset dx="0" dy="1" in="shadowBlurInner1" result="shadowOffsetInner1"></feOffset>
            <feComposite in="shadowOffsetInner1" in2="SourceAlpha" operator="arithmetic" k2="-1" k3="1" result="shadowInnerInner1"></feComposite>
            <feColorMatrix values="0 0 0 0 0.97254902   0 0 0 0 0.77254902   0 0 0 0 0.109803922  0 0 0 1 0" type="matrix" in="shadowInnerInner1"></feColorMatrix>
        </filter>
        <circle id="path-3" cx="77" cy="79" r="75"></circle>
        <filter x="-4.7%" y="-4.7%" width="109.3%" height="109.3%" filterUnits="objectBoundingBox" id="filter-4">
            <feMorphology radius="5" operator="erode" in="SourceAlpha" result="shadowSpreadInner1"></feMorphology>
            <feGaussianBlur stdDeviation="4" in="shadowSpreadInner1" result="shadowBlurInner1"></feGaussianBlur>
            <feOffset dx="0" dy="1" in="shadowBlurInner1" result="shadowOffsetInner1"></feOffset>
            <feComposite in="shadowOffsetInner1" in2="SourceAlpha" operator="arithmetic" k2="-1" k3="1" result="shadowInnerInner1"></feComposite>
            <feColorMatrix values="0 0 0 0 0.97254902   0 0 0 0 0.77254902   0 0 0 0 0.109803922  0 0 0 1 0" type="matrix" in="shadowInnerInner1"></feColorMatrix>
        </filter>
        <circle id="path-5" cx="79" cy="79" r="79"></circle>
        <filter x="-4.4%" y="-4.4%" width="108.9%" height="108.9%" filterUnits="objectBoundingBox" id="filter-6">
            <feMorphology radius="5" operator="erode" in="SourceAlpha" result="shadowSpreadInner1"></feMorphology>
            <feGaussianBlur stdDeviation="4" in="shadowSpreadInner1" result="shadowBlurInner1"></feGaussianBlur>
            <feOffset dx="0" dy="1" in="shadowBlurInner1" result="shadowOffsetInner1"></feOffset>
            <feComposite in="shadowOffsetInner1" in2="SourceAlpha" operator="arithmetic" k2="-1" k3="1" result="shadowInnerInner1"></feComposite>
            <feColorMatrix values="0 0 0 0 0.97254902   0 0 0 0 0.77254902   0 0 0 0 0.109803922  0 0 0 1 0" type="matrix" in="shadowInnerInner1"></feColorMatrix>
        </filter>
    </defs>
    <g id="Apple-TV" stroke="none" stroke-width="1" fill="none" fill-rule="evenodd" transform="translate(-1275.000000, -909.000000)">
        <g id="Group-34" transform="translate(2.000000, 909.000000)">
            <g id="big-money" transform="translate(1273.000000, 0.000000)">
                <g id="Group-8">
                    <g id="Oval">
                        <use fill="#FFFFFF" fill-rule="evenodd" xlink:href="#path-1"></use>
                        <use fill="black" fill-opacity="1" filter="url(#filter-2)" xlink:href="#path-1"></use>
                        <circle stroke="#F8C51C" stroke-width="1" cx="77.5" cy="79.5" r="67"></circle>
                    </g>
                    <g id="Oval">
                        <use fill="#FFFFFF" fill-rule="evenodd" xlink:href="#path-3"></use>
                        <use fill="black" fill-opacity="1" filter="url(#filter-4)" xlink:href="#path-3"></use>
                        <circle stroke="#F8C51C" stroke-width="1" cx="77" cy="79" r="74.5"></circle>
                    </g>
                    <g id="Oval">
                        <use fill="#FFFFFF" fill-rule="evenodd" xlink:href="#path-5"></use>
                        <use fill="black" fill-opacity="1" filter="url(#filter-6)" xlink:href="#path-5"></use>
                        <circle stroke="#F8C51C" stroke-width="1" cx="79" cy="79" r="78.5"></circle>
                    </g>
                    <circle id="Oval" fill="#F8C51C" cx="79" cy="79" r="60"></circle>
                </g>
                <g id="dollar-coins-(2)" transform="translate(54.000000, 48.000000)" fill="#FFFFFF" fill-rule="nonzero">
                    <path d="M44.6018005,30.7836151 C42.0912629,27.0417211 38.8815868,24.1674339 36.3027687,21.8579307 C33.9913008,19.7879205 31.9534462,17.9619711 31.4409738,16.38465 C32.5163922,15.9624509 33.2807412,14.9105332 33.2807412,13.6817115 C33.2807412,12.4837524 32.5547079,11.4531915 31.5216578,11.011117 L33.6543192,2.60268826 C33.882494,1.79100428 33.7367225,1.04129223 33.2533553,0.543541694 C32.7669179,0.0428283572 32.0186566,-0.120496037 31.2005183,0.0955415216 C31.1849218,0.0996153727 31.169571,0.104059574 31.1542202,0.108997575 C31.1141852,0.121836379 27.1388092,1.39756903 25.8179002,1.77890618 C24.9596041,2.0264235 23.4527658,2.02778145 22.5932416,1.78174553 C21.2584555,1.39942078 17.2409568,0.118503228 17.2005534,0.105540974 C17.1853254,0.100726423 17.1699745,0.0962822218 17.1545009,0.0922083707 C16.3359941,-0.122471238 15.5878557,0.0417173069 15.1016639,0.542924444 C14.6154721,1.04413158 14.4710515,1.80038649 14.7052438,2.61762571 C14.7079456,2.62750171 14.7110158,2.63725427 14.7140859,2.64688337 L17.4209914,11.0371649 C16.4187659,11.4924486 15.7192588,12.5062203 15.7192588,13.6817115 C15.7192588,14.9105332 16.4836078,15.9625744 17.5590262,16.38465 C17.046431,17.9618477 15.0085764,19.7877971 12.6972313,21.8578073 C10.1182904,24.1673105 6.90873707,27.0415976 4.3981995,30.7834916 C1.4386806,35.1944848 0,39.9379289 0,45.2849202 C0,50.1070019 1.92745131,54.5312042 5.42719692,57.7427569 C9.17525771,61.1820748 14.411613,63 20.5701239,63 L28.4297533,63 C34.5882642,63 39.8246195,61.1820748 43.5726803,57.7427569 C47.0725487,54.5312042 49,50.1068785 49,45.2849202 C49,39.9381758 47.5613194,35.1946082 44.6018005,30.7836151 Z M26.4480214,14.7311603 C26.4472846,14.7311603 26.4465478,14.7311603 26.4458109,14.7311603 L22.5545575,14.7311603 C22.5532066,14.7311603 22.5518558,14.7311603 22.5506277,14.7311603 L18.6053393,14.7311603 C18.0297443,14.7311603 17.5614823,14.2604453 17.5614823,13.681835 C17.5614823,13.1038419 18.028639,12.6337442 18.6033744,12.6326331 C18.6039885,12.6326331 18.6046025,12.6327566 18.6050937,12.6327566 C18.6060762,12.6327566 18.6071814,12.6325097 18.6081639,12.6325097 L23.5140463,12.6325097 C23.5150288,12.6325097 23.5158884,12.6327566 23.5168709,12.6327566 C23.518099,12.6327566 23.5194498,12.6325097 23.5208007,12.6325097 L25.4793221,12.6325097 C25.480673,12.6325097 25.481901,12.6327566 25.4832519,12.6327566 C25.4842344,12.6327566 25.485094,12.6325097 25.4860765,12.6325097 L30.3947835,12.6325097 C30.9703785,12.6325097 31.4386405,13.1032247 31.4386405,13.681835 C31.4386405,14.2604453 30.9703785,14.7311603 30.3947835,14.7311603 L26.4480214,14.7311603 Z M16.4370641,1.85211205 C16.4809061,1.84890235 16.5564322,1.85137135 16.6690459,1.87902416 C17.0480274,1.99988174 20.7691936,3.18500207 22.088506,3.56288262 C23.2771522,3.90298746 25.1382879,3.90150606 26.3259516,3.55905567 C27.6310185,3.18228616 31.3106759,2.00272109 31.6884294,1.88161661 C31.7993238,1.8542107 31.8741131,1.8514948 31.9182007,1.85433415 C31.9201656,1.90149206 31.9150077,1.98296909 31.879885,2.10518462 C31.8773061,2.11431992 31.8747271,2.12357868 31.8723938,2.13283743 L29.6789432,10.7808826 L26.6619507,10.7808826 L27.3582648,7.98091242 C27.4816855,7.48489019 27.1816687,6.98220165 26.6881086,6.85813437 C26.1952852,6.73431398 25.6946023,7.03577897 25.5711815,7.5318012 L24.7631134,10.7808826 L24.2363954,10.7808826 L23.4283272,7.5318012 C23.3049065,7.03565552 22.8044692,6.73394363 22.3114002,6.85813437 C21.8178401,6.9820782 21.5178233,7.48489019 21.641244,7.98091242 L22.3375581,10.7808826 L19.2745131,10.7808826 L16.4716956,2.09222237 C16.4393974,1.97556208 16.4349764,1.89754166 16.4370641,1.85211205 Z M42.330736,56.3753008 C38.9278849,59.497846 34.1209847,61.1483729 28.4297533,61.1483729 L20.5701239,61.1483729 C14.8790153,61.1483729 10.0721151,59.497846 6.66926399,56.3753008 C3.55648231,53.518914 1.84210065,49.5803641 1.84210065,45.2850436 C1.84210065,34.0591148 8.82427613,27.8062471 13.9225967,23.2405711 C16.6710108,20.7792243 18.9118649,18.7719268 19.4183198,16.5829108 L21.2571046,16.5829108 L20.6788078,18.3270129 C20.517931,18.8121715 20.7787725,19.3364638 21.2614029,19.4981833 C21.3580517,19.5305272 21.4561743,19.5459585 21.5528232,19.5459585 C21.9384362,19.5459585 22.2977687,19.3005398 22.4264701,18.9126598 L23.1990471,16.5829108 L25.8010757,16.5829108 L26.5736527,18.9126598 C26.7023541,19.3006633 27.0616866,19.5459585 27.4472996,19.5459585 C27.5438257,19.5459585 27.6420711,19.5305272 27.73872,19.4981833 C28.2213503,19.3364638 28.482069,18.8121715 28.321315,18.3270129 L27.7430182,16.5829108 L29.5819259,16.5829108 C30.0883807,18.7719268 32.3292348,20.7793478 35.0776489,23.2405711 C40.1759695,27.8062471 47.158145,34.0591148 47.158145,45.2850436 C47.1578994,49.5803641 45.4436405,53.518914 42.330736,56.3753008 Z" id="Shape"></path>
                    <path d="M25,35.7044025 C27.2253053,35.7044025 29.1052632,36.826239 29.1052632,38.1540881 C29.1052632,38.649044 29.5294316,39.0503145 30.0526316,39.0503145 C30.5758316,39.0503145 31,38.649044 31,38.1540881 C31,36.0037421 28.8463158,34.2749811 25.9473684,33.9626164 L25.9473684,32.8962264 C25.9473684,32.4012704 25.5232,32 25,32 C24.4768,32 24.0526316,32.4012704 24.0526316,32.8962264 L24.0526316,33.9626164 C21.1536842,34.2749811 19,36.0037421 19,38.1540881 C19,40.5329119 21.6354526,42.3962264 25,42.3962264 C27.2253053,42.3962264 29.1052632,43.5180629 29.1052632,44.8459119 C29.1052632,46.173761 27.2253053,47.2955975 25,47.2955975 C22.7746947,47.2955975 20.8947368,46.173761 20.8947368,44.8459119 C20.8947368,44.350956 20.4705684,43.9496855 19.9473684,43.9496855 C19.4241684,43.9496855 19,44.350956 19,44.8459119 C19,46.9962579 21.1536842,48.7250189 24.0526316,49.0373836 L24.0526316,50.1037736 C24.0526316,50.5987296 24.4768,51 25,51 C25.5232,51 25.9473684,50.5987296 25.9473684,50.1037736 L25.9473684,49.0373836 C28.8463158,48.7250189 31,46.9962579 31,44.8459119 C31,42.4670881 28.3645474,40.6037736 25,40.6037736 C22.7746947,40.6037736 20.8947368,39.4819371 20.8947368,38.1540881 C20.8947368,36.826239 22.7746947,35.7044025 25,35.7044025 Z" id="Shape"></path>
                    <path d="M24.5,27 C16.5046151,27 10,33.7289121 10,42 C10,50.2710879 16.5046151,57 24.5,57 C32.4953849,57 39,50.2710879 39,42 C39,33.7289121 32.4953849,27 24.5,27 Z M24.5,55.1171548 C17.5082092,55.1171548 11.8200837,49.232887 11.8200837,42 C11.8200837,34.767113 17.5082092,28.8828452 24.5,28.8828452 C31.4917908,28.8828452 37.1799163,34.767113 37.1799163,42 C37.1799163,49.232887 31.4917908,55.1171548 24.5,55.1171548 Z" id="Shape"></path>
                </g>
            </g>
        </g>
    </g>
</svg>