<?xml version="1.0" encoding="UTF-8"?>
<svg width="73px" height="73px" viewBox="0 0 73 73" version="1.1" xmlns="http://www.w3.org/2000/svg" xmlns:xlink="http://www.w3.org/1999/xlink">
    <!-- Generator: Sketch 48.2 (47327) - http://www.bohemiancoding.com/sketch -->
    <title>gauge</title>
    <desc>Created with Sketch.</desc>
    <defs></defs>
    <g id="Apple-TV" stroke="none" stroke-width="1" fill="none" fill-rule="evenodd" transform="translate(-570.000000, -3238.000000)">
        <g id="Group-12" transform="translate(392.000000, 2851.000000)" fill="#F8C51C" fill-rule="nonzero">
            <g id="Group-11" transform="translate(70.000000, 387.000000)">
                <g id="gauge" transform="translate(108.000000, 0.000000)">
                    <path d="M36.4375444,72.8752241 C16.346187,72.8752241 0,56.5305241 0,36.4375444 C0,16.346187 16.346187,0 36.4375444,0 C56.5303889,0 72.8750889,16.346187 72.8750889,36.4375444 C72.8752241,56.5305241 56.5305241,72.8752241 36.4375444,72.8752241 Z M36.4375444,3.03652963 C18.0201852,3.03652963 3.03652963,18.0201852 3.03652963,36.4375444 C3.03652963,54.8549037 18.0201852,69.8386944 36.4375444,69.8386944 C54.8549037,69.8386944 69.8386944,54.8550389 69.8386944,36.4375444 C69.8386944,18.02005 54.8550389,3.03652963 36.4375444,3.03652963 Z" id="Shape"></path>
                    <path d="M36.4375444,42.5106037 C33.0881963,42.5106037 30.3646204,39.7855407 30.3646204,36.4376796 C30.3646204,33.0883315 33.0881963,30.3647556 36.4375444,30.3647556 C39.7854056,30.3647556 42.5104685,33.0883315 42.5104685,36.4376796 C42.5106037,39.7854056 39.7854056,42.5106037 36.4375444,42.5106037 Z M36.4375444,33.40115 C34.7636815,33.40115 33.4010148,34.7636815 33.4010148,36.4376796 C33.4010148,38.1130296 34.7635463,39.4742093 36.4375444,39.4742093 C38.1130296,39.4740741 39.4740741,38.1130296 39.4740741,36.4375444 C39.4740741,34.7636815 38.1130296,33.40115 36.4375444,33.40115 Z" id="Shape"></path>
                    <path d="M63.0837611,48.9957074 C62.888013,48.9957074 62.6924,48.9601537 62.5026,48.8801241 L56.8952537,46.5553444 C56.1213185,46.2350907 55.7536148,45.345437 56.0738685,44.5715019 C56.3970963,43.7945926 57.292563,43.4239148 58.0577111,43.7501167 L63.6650574,46.0748963 C64.4389926,46.39515 64.8066963,47.2848037 64.4864426,48.0587389 C64.2432444,48.6427389 63.6797926,48.9957074 63.0837611,48.9957074 Z M9.78700185,48.9927333 C9.19097037,48.9927333 8.62603148,48.6399 8.38445556,48.0557648 C8.06420185,47.2818296 8.43190556,46.3921759 9.20584074,46.0719222 L14.813187,43.7501167 C15.5886093,43.4239148 16.4767759,43.7975667 16.7970296,44.5715019 C17.1172833,45.345437 16.7495796,46.2350907 15.9756444,46.5553444 L10.3682981,48.87715 C10.178363,48.9570444 9.98126296,48.9927333 9.78700185,48.9927333 Z M13.4906704,38.5192611 L7.4177463,38.5192611 C6.57851667,38.5192611 5.89948148,37.8402259 5.89948148,37.0009963 C5.89948148,36.1617667 6.57851667,35.4827315 7.4177463,35.4827315 L13.4906704,35.4827315 C14.3299,35.4827315 15.0089352,36.1617667 15.0089352,37.0009963 C15.0088,37.8402259 14.3297648,38.5192611 13.4906704,38.5192611 Z M65.2810611,37.9587833 L59.2111111,37.9558093 C58.3718815,37.9558093 57.6928463,37.2767741 57.6928463,36.4360574 C57.6928463,35.5983148 58.3718815,34.9192796 59.2111111,34.9192796 L65.2810611,34.9222537 C66.1202907,34.9222537 66.7993259,35.6027759 66.7993259,36.4405185 C66.7993259,37.2797481 66.1202907,37.9587833 65.2810611,37.9587833 Z M39.6579259,34.7340759 C39.2694037,34.7340759 38.8810167,34.5857778 38.5844204,34.2893167 C37.991363,33.6962593 37.991363,32.7354981 38.5844204,32.1424407 L53.6125519,17.1157963 C54.2056093,16.5227389 55.1663704,16.5227389 55.7594278,17.1157963 C56.3524852,17.7088537 56.3524852,18.6696148 55.7594278,19.2626722 L40.7312963,34.2891815 C40.4348352,34.5857778 40.046313,34.7340759 39.6579259,34.7340759 Z M15.3943481,29.2408259 C15.200087,29.2408259 15.002987,29.2037852 14.8117,29.1252426 L9.20732778,26.7989759 C8.43339259,26.4772352 8.06568889,25.5890685 8.38742963,24.8136463 C8.71065741,24.0382241 9.59585,23.6734944 10.3727593,23.9937481 L15.9771315,26.3200148 C16.7510667,26.6417556 17.1187704,27.5299222 16.7970296,28.3053444 C16.5538315,28.8894796 15.9888926,29.2408259 15.3943481,29.2408259 Z M57.4764148,29.2408259 C56.8803833,29.2408259 56.3169315,28.8879926 56.0738685,28.3038574 C55.7536148,27.5284352 56.1213185,26.6402685 56.8952537,26.3200148 L62.5055741,23.9982093 C63.2824833,23.6809296 64.169163,24.0471463 64.4894167,24.8195944 C64.8096704,25.5950167 64.4419667,26.4831833 63.6680315,26.803437 L58.0577111,29.1252426 C57.8677759,29.2037852 57.6691889,29.2408259 57.4764148,29.2408259 Z M20.3315815,21.8498463 C19.9431944,21.8498463 19.5546722,21.7015481 19.2582111,21.405087 L14.9689204,17.1128222 C14.375863,16.5197648 14.375863,15.5575167 14.9689204,14.9659463 C15.5619778,14.3728889 16.5227389,14.3728889 17.1157963,14.9659463 L21.405087,19.2582111 C21.9981444,19.8512685 21.9981444,20.8135167 21.405087,21.405087 C21.1084907,21.7015481 20.7199685,21.8498463 20.3315815,21.8498463 Z M27.7225611,16.912613 C27.1280167,16.912613 26.5615907,16.5597796 26.3200148,15.9756444 L23.9982093,10.3682981 C23.6779556,9.59287593 24.0456593,8.70470926 24.8195944,8.38445556 C25.5890685,8.06717593 26.4831833,8.43190556 26.803437,9.20584074 L29.1252426,14.813187 C29.4454963,15.5886093 29.0777926,16.4767759 28.3038574,16.7970296 C28.1140574,16.8755722 27.9168222,16.912613 27.7225611,16.912613 Z M45.152663,16.912613 C44.9569148,16.912613 44.7613019,16.8755722 44.5715019,16.7970296 C43.7975667,16.4752889 43.429863,15.5871222 43.7501167,14.813187 L46.0748963,9.20881481 C46.3981241,8.43339259 47.2876426,8.06717593 48.0587389,8.38742963 C48.8326741,8.70917037 49.2003778,9.59733704 48.8801241,10.3712722 L46.5553444,15.9756444 C46.3120111,16.5597796 45.7486944,16.912613 45.152663,16.912613 Z M36.2641019,15.7471815 C35.4248722,15.7471815 34.745837,15.0681463 34.745837,14.2289167 L34.745837,8.15599259 C34.745837,7.31676296 35.4248722,6.63772778 36.2641019,6.63772778 C37.1018444,6.63772778 37.7838537,7.31676296 37.7838537,8.15599259 L37.7838537,14.2289167 C37.7838537,15.0681463 37.1018444,15.7471815 36.2641019,15.7471815 Z" id="Shape"></path>
                    <path d="M50.1016574,60.7293759 L22.7735667,60.7293759 C21.934337,60.7293759 21.2553019,60.0503407 21.2553019,59.2111111 L21.2553019,50.1016574 C21.2553019,49.2624278 21.934337,48.5833926 22.7735667,48.5833926 L50.1017926,48.5833926 C50.9410222,48.5833926 51.6200574,49.2624278 51.6200574,50.1016574 L51.6200574,59.2111111 C51.6199222,60.0503407 50.940887,60.7293759 50.1016574,60.7293759 Z M24.2916963,57.6928463 L48.5833926,57.6928463 L48.5833926,51.6199222 L24.2916963,51.6199222 L24.2916963,57.6928463 Z" id="Shape"></path>
                </g>
            </g>
        </g>
    </g>
</svg>