<?xml version="1.0" encoding="UTF-8"?>
<svg width="80px" height="73px" viewBox="0 0 80 73" version="1.1" xmlns="http://www.w3.org/2000/svg" xmlns:xlink="http://www.w3.org/1999/xlink">
    <!-- Generator: Sketch 48.2 (47327) - http://www.bohemiancoding.com/sketch -->
    <title>graph</title>
    <desc>Created with Sketch.</desc>
    <defs></defs>
    <g id="Apple-TV" stroke="none" stroke-width="1" fill="none" fill-rule="evenodd" transform="translate(-922.000000, -3238.000000)">
        <g id="Group-12" transform="translate(392.000000, 2851.000000)" fill="#F8C51C" fill-rule="nonzero" stroke="#F8C51C">
            <g id="Group-11" transform="translate(426.000000, 387.000000)">
                <g id="graph" transform="translate(105.000000, 0.000000)">
                    <path d="M76.9107143,69.8392857 L76.9107143,19 L61.2678571,19 L61.2678571,69.8392857 L57.3571429,69.8392857 L57.3571429,29.4285714 L41.7142857,29.4285714 L41.7142857,69.8392857 L37.8035714,69.8392857 L37.8035714,39.8571429 L22.1607143,39.8571429 L22.1607143,69.8392857 L18.25,69.8392857 L18.25,51.5892857 L2.60714286,51.5892857 L2.60714286,69.8392857 L1.30357143,69.8392857 C0.584,69.8392857 0,70.4219821 0,71.1428571 C0,71.8637321 0.584,72.4464286 1.30357143,72.4464286 L2.60714286,72.4464286 L18.25,72.4464286 L22.1607143,72.4464286 L37.8035714,72.4464286 L41.7142857,72.4464286 L57.3571429,72.4464286 L61.2678571,72.4464286 L76.9107143,72.4464286 C77.6302857,72.4464286 78.2142857,71.8637321 78.2142857,71.1428571 C78.2142857,70.4219821 77.6302857,69.8392857 76.9107143,69.8392857 Z M5.21428571,69.8392857 L5.21428571,54.1964286 L15.6428571,54.1964286 L15.6428571,69.8392857 L5.21428571,69.8392857 Z M24.7678571,69.8392857 L24.7678571,42.4642857 L35.1964286,42.4642857 L35.1964286,69.8392857 L24.7678571,69.8392857 Z M44.3214286,69.8392857 L44.3214286,32.0357143 L54.75,32.0357143 L54.75,69.8392857 L44.3214286,69.8392857 Z M63.875,69.8392857 L63.875,21.6071429 L74.3035714,21.6071429 L74.3035714,69.8392857 L63.875,69.8392857 Z" id="Shape"></path>
                    <path d="M10.4676786,33.67125 C10.6879821,33.67125 10.9135,33.6151964 11.1181607,33.4965714 L58.3973929,6.19978571 L55.4382857,12.7046071 C55.1397679,13.3603036 55.4291607,14.1333214 56.0848571,14.4305357 C56.2595357,14.5113571 56.4433393,14.5478571 56.6245357,14.5478571 C57.1198929,14.5478571 57.5930893,14.2636786 57.8120893,13.7839643 L62.4554107,3.577 C62.46975,3.54441071 62.4671429,3.50921429 62.478875,3.47532143 C62.5036429,3.40623214 62.5231964,3.33975 62.5362321,3.26675 C62.54275,3.23025 62.5636071,3.20026786 62.5662143,3.16246429 C62.5675179,3.14682143 62.561,3.13378571 62.5623036,3.11814286 C62.5649107,3.06860714 62.5596964,3.02298214 62.5570893,2.97344643 C62.5531786,2.90175 62.5414464,2.83396429 62.5258036,2.76226786 C62.515375,2.71273214 62.5127679,2.66189286 62.4958214,2.61366071 C62.4801786,2.56673214 62.4528036,2.527625 62.4319464,2.482 C62.415,2.45201786 62.415,2.41682143 62.39675,2.38553571 C62.3785,2.35425 62.3472143,2.336 62.3263571,2.30601786 C62.2989821,2.26560714 62.278125,2.22258929 62.2455357,2.18608929 C62.2116429,2.14698214 62.168625,2.11960714 62.1295179,2.08441071 C62.0760714,2.03617857 62.022625,1.99185714 61.9626607,1.95275 C61.92225,1.92667857 61.88575,1.898 61.8414286,1.87583929 C61.8270893,1.86932143 61.8192679,1.85628571 61.8049286,1.84976786 C61.7723393,1.83542857 61.7371429,1.83803571 61.7045536,1.82630357 C61.6328571,1.80023214 61.5624643,1.78198214 61.4881607,1.76894643 C61.4542679,1.76242857 61.4268929,1.742875 61.3916964,1.74026786 L50.2305179,0.658303571 C49.5070357,0.585303571 48.8761071,1.11455357 48.8070179,1.82891071 C48.736625,2.545875 49.2619643,3.18332143 49.977625,3.25241071 L57.0899107,3.942 L9.81458929,31.2387857 C9.19017857,31.5985714 8.97769643,32.3963571 9.33748214,33.0194643 C9.57864286,33.4379107 10.0166429,33.67125 10.4676786,33.67125 Z" id="Shape"></path>
                </g>
            </g>
        </g>
    </g>
</svg>