<?xml version="1.0" encoding="UTF-8"?>
<svg width="158px" height="158px" viewBox="0 0 158 158" version="1.1" xmlns="http://www.w3.org/2000/svg" xmlns:xlink="http://www.w3.org/1999/xlink">
    <!-- Generator: Sketch 48.2 (47327) - http://www.bohemiancoding.com/sketch -->
    <title>money</title>
    <desc>Created with Sketch.</desc>
    <defs>
        <circle id="path-1" cx="79.5" cy="79.5" r="67.5"></circle>
        <filter x="-5.2%" y="-5.2%" width="110.4%" height="110.4%" filterUnits="objectBoundingBox" id="filter-2">
            <feMorphology radius="5" operator="erode" in="SourceAlpha" result="shadowSpreadInner1"></feMorphology>
            <feGaussianBlur stdDeviation="4" in="shadowSpreadInner1" result="shadowBlurInner1"></feGaussianBlur>
            <feOffset dx="0" dy="1" in="shadowBlurInner1" result="shadowOffsetInner1"></feOffset>
            <feComposite in="shadowOffsetInner1" in2="SourceAlpha" operator="arithmetic" k2="-1" k3="1" result="shadowInnerInner1"></feComposite>
            <feColorMatrix values="0 0 0 0 0.97254902   0 0 0 0 0.77254902   0 0 0 0 0.109803922  0 0 0 1 0" type="matrix" in="shadowInnerInner1"></feColorMatrix>
        </filter>
        <circle id="path-3" cx="79" cy="79" r="75"></circle>
        <filter x="-4.7%" y="-4.7%" width="109.3%" height="109.3%" filterUnits="objectBoundingBox" id="filter-4">
            <feMorphology radius="5" operator="erode" in="SourceAlpha" result="shadowSpreadInner1"></feMorphology>
            <feGaussianBlur stdDeviation="4" in="shadowSpreadInner1" result="shadowBlurInner1"></feGaussianBlur>
            <feOffset dx="0" dy="1" in="shadowBlurInner1" result="shadowOffsetInner1"></feOffset>
            <feComposite in="shadowOffsetInner1" in2="SourceAlpha" operator="arithmetic" k2="-1" k3="1" result="shadowInnerInner1"></feComposite>
            <feColorMatrix values="0 0 0 0 0.97254902   0 0 0 0 0.77254902   0 0 0 0 0.109803922  0 0 0 1 0" type="matrix" in="shadowInnerInner1"></feColorMatrix>
        </filter>
        <circle id="path-5" cx="79" cy="79" r="79"></circle>
        <filter x="-4.4%" y="-4.4%" width="108.9%" height="108.9%" filterUnits="objectBoundingBox" id="filter-6">
            <feMorphology radius="5" operator="erode" in="SourceAlpha" result="shadowSpreadInner1"></feMorphology>
            <feGaussianBlur stdDeviation="4" in="shadowSpreadInner1" result="shadowBlurInner1"></feGaussianBlur>
            <feOffset dx="0" dy="1" in="shadowBlurInner1" result="shadowOffsetInner1"></feOffset>
            <feComposite in="shadowOffsetInner1" in2="SourceAlpha" operator="arithmetic" k2="-1" k3="1" result="shadowInnerInner1"></feComposite>
            <feColorMatrix values="0 0 0 0 0.97254902   0 0 0 0 0.77254902   0 0 0 0 0.109803922  0 0 0 1 0" type="matrix" in="shadowInnerInner1"></feColorMatrix>
        </filter>
    </defs>
    <g id="Apple-TV" stroke="none" stroke-width="1" fill="none" fill-rule="evenodd" transform="translate(-886.000000, -909.000000)">
        <g id="Group-34" transform="translate(2.000000, 909.000000)">
            <g id="money" transform="translate(884.000000, 0.000000)">
                <g id="Oval">
                    <use fill="#FFFFFF" fill-rule="evenodd" xlink:href="#path-1"></use>
                    <use fill="black" fill-opacity="1" filter="url(#filter-2)" xlink:href="#path-1"></use>
                    <circle stroke="#F8C51C" stroke-width="1" cx="79.5" cy="79.5" r="67"></circle>
                </g>
                <g id="Oval">
                    <use fill="#FFFFFF" fill-rule="evenodd" xlink:href="#path-3"></use>
                    <use fill="black" fill-opacity="1" filter="url(#filter-4)" xlink:href="#path-3"></use>
                    <circle stroke="#F8C51C" stroke-width="1" cx="79" cy="79" r="74.5"></circle>
                </g>
                <g id="Oval">
                    <use fill="#FFFFFF" fill-rule="evenodd" xlink:href="#path-5"></use>
                    <use fill="black" fill-opacity="1" filter="url(#filter-6)" xlink:href="#path-5"></use>
                    <circle stroke="#F8C51C" stroke-width="1" cx="79" cy="79" r="78.5"></circle>
                </g>
                <circle id="Oval" fill="#F8C51C" cx="79" cy="79" r="60"></circle>
                <g id="coins-(1)" transform="translate(49.000000, 52.000000)" fill="#FFFFFF" fill-rule="nonzero">
                    <path d="M59.989,18 C59.89,16.289 57.855,14.952 53.785,13.932 C53.922,13.632 53.999,13.32 54,12.996 L54,6 L53.983,6 C53.625,0.172 29.743,0 27,0 C24.257,0 0.375,0.172 0.017,6 L0,6 L0,6.13 L0,12.999 C0.005,14.899 2.457,16.386 6.105,17.493 C6.055,17.659 6.025,17.828 6.015,18 L6,18 L6,18.13 L6,24.987 C2.07,25.999 0.107,27.317 0.01,29 L0,29 L0,29.13 L0,35.999 C0.003,37.322 1.196,38.444 3.148,39.379 C3.074,39.582 3.028,39.789 3.015,40.001 L3,40.001 L3,40.131 L3,47 C3.008,50.326 10.497,52.391 18.818,53.355 C18.879,53.367 18.935,53.392 19,53.392 C19.019,53.392 19.035,53.382 19.054,53.381 C20.658,53.562 22.288,53.703 23.901,53.804 C23.935,53.808 23.965,53.824 24,53.824 C24.019,53.824 24.034,53.814 24.052,53.813 C26.1,53.937 28.115,54 30,54 C31.885,54 33.9,53.937 35.948,53.812 C35.966,53.813 35.982,53.823 36,53.823 C36.035,53.823 36.065,53.806 36.099,53.803 C37.712,53.702 39.342,53.562 40.946,53.38 C40.965,53.38 40.981,53.39 41,53.39 C41.065,53.39 41.121,53.365 41.182,53.353 C49.503,52.389 56.991,50.323 57,46.996 L57,40 L56.984,40 C56.914,38.774 55.869,37.751 53.805,36.896 C53.931,36.607 54,36.307 54,35.996 L54,29.46 C57.59,28.356 59.995,26.879 60,24.996 L60,18 L59.989,18 Z M51.892,36.321 L51.551,36.62 C51.026,37.083 50.151,37.55 49,38 L49,33.232 C50.189,32.818 51.201,32.359 52,31.856 L52,35.994 C52,36.097 51.962,36.207 51.892,36.321 Z M29.526,40.968 C29.38,40.972 29.233,40.974 29.086,40.977 C28.729,40.984 28.363,40.986 28.001,40.989 L28.001,35.994 C28.276,35.991 28.551,35.987 28.826,35.982 C28.879,35.981 28.932,35.98 28.985,35.979 C29.992,35.96 30.999,35.929 32.001,35.883 L32.001,40.876 C31.787,40.887 31.572,40.897 31.355,40.906 C30.753,40.933 30.145,40.953 29.526,40.968 Z M25.159,40.982 C24.701,40.974 24.245,40.963 23.792,40.949 C23.736,40.947 23.68,40.945 23.624,40.943 C23.079,40.925 22.538,40.902 22.001,40.876 L22.001,35.884 C23.003,35.931 24.01,35.962 25.017,35.98 C25.07,35.981 25.123,35.982 25.175,35.983 C25.45,35.988 25.725,35.992 26,35.995 L26,40.993 C25.806,40.991 25.612,40.991 25.419,40.988 C25.331,40.986 25.246,40.983 25.159,40.982 Z M7.097,38.702 C7.064,38.692 7.033,38.683 7,38.674 L7,33.843 C7.934,34.095 8.938,34.325 10,34.534 L10,39.415 C9.082,39.22 8.235,39.015 7.464,38.805 C7.342,38.77 7.216,38.737 7.097,38.702 Z M28.175,46.983 C28.45,46.988 28.725,46.992 29,46.995 L29,51.994 C27.618,51.981 26.284,51.941 25,51.878 L25,46.885 C26.002,46.932 27.009,46.963 28.016,46.981 C28.069,46.981 28.122,46.982 28.175,46.983 Z M31.984,46.98 C32.991,46.961 33.998,46.93 35,46.884 L35,51.877 C33.716,51.94 32.382,51.98 31,51.993 L31,46.994 C31.275,46.991 31.55,46.987 31.825,46.982 C31.878,46.982 31.931,46.981 31.984,46.98 Z M40,46.528 L40,51.494 C39.039,51.595 38.039,51.684 37,51.757 L37,46.77 C38.014,46.704 39.016,46.623 40,46.528 Z M42,46.312 C43.031,46.188 44.032,46.047 45,45.89 L45,50.8 C44.058,50.966 43.057,51.119 42,51.258 L42,46.312 Z M47,45.533 C48.062,45.324 49.066,45.094 50,44.842 L50,49.673 C49.109,49.93 48.106,50.179 47,50.414 L47,45.533 Z M13,45.533 L13,50.414 C11.894,50.179 10.891,49.93 10,49.673 L10,44.842 C10.934,45.094 11.938,45.325 13,45.533 Z M15,45.891 C15.968,46.048 16.969,46.189 18,46.313 L18,51.259 C16.943,51.12 15.942,50.967 15,50.801 L15,45.891 Z M20,46.528 C20.984,46.623 21.986,46.704 23,46.771 L23,51.758 C21.961,51.685 20.961,51.596 20,51.495 L20,46.528 Z M17.519,40.548 C17.417,40.538 17.316,40.527 17.215,40.517 C17.143,40.51 17.072,40.501 17,40.494 L17,35.529 C17.984,35.624 18.986,35.705 20,35.772 L20,40.755 C19.16,40.695 18.33,40.627 17.519,40.548 Z M15,35.312 L15,40.258 C13.943,40.119 12.942,39.966 12,39.8 L12,34.89 C12.968,35.047 13.969,35.189 15,35.312 Z M34.666,40.708 C34.446,40.725 34.224,40.742 34,40.758 L34,35.771 C35.014,35.704 36.016,35.624 37,35.528 L37,40.494 C36.382,40.559 35.75,40.62 35.101,40.673 C34.956,40.686 34.811,40.697 34.666,40.708 Z M39,40.258 L39,35.312 C40.031,35.188 41.032,35.047 42,34.89 L42,39.8 C41.058,39.966 40.057,40.12 39,40.258 Z M44,34.533 C45.062,34.324 46.066,34.094 47,33.842 L47,38.673 C46.109,38.93 45.106,39.179 44,39.414 L44,34.533 Z M30.325,29.965 C29.573,29.946 28.838,29.917 28.116,29.882 C28.077,29.88 28.038,29.878 28,29.877 L28,24.884 C29.002,24.931 30.009,24.962 31.016,24.98 C31.069,24.981 31.122,24.982 31.174,24.983 C31.449,24.988 31.724,24.992 31.999,24.995 L31.999,29.988 C31.512,29.983 31.021,29.981 30.546,29.97 C30.473,29.968 30.398,29.967 30.325,29.965 Z M7,15.674 L7,10.843 C7.934,11.095 8.938,11.325 10,11.534 L10,16.415 C9.877,16.389 9.75,16.363 9.63,16.337 C9.098,16.22 8.579,16.098 8.083,15.969 C7.705,15.872 7.346,15.773 7,15.674 Z M25.175,12.983 C25.45,12.988 25.725,12.992 26,12.995 L26,17.988 C24.654,17.975 23.316,17.94 22,17.874 L22,12.885 C23.002,12.932 24.009,12.963 25.016,12.981 C25.069,12.981 25.122,12.982 25.175,12.983 Z M28.984,12.98 C29.991,12.961 30.998,12.93 32,12.884 L32,17.873 C31.83,17.881 31.667,17.893 31.496,17.901 C31.482,17.902 31.468,17.902 31.453,17.903 C30.782,17.933 30.098,17.955 29.405,17.971 C29.297,17.974 29.189,17.975 29.081,17.978 C28.725,17.985 28.361,17.986 28,17.99 L28,12.995 C28.275,12.992 28.55,12.988 28.825,12.983 C28.878,12.982 28.931,12.981 28.984,12.98 Z M51.771,13.482 L51.743,13.476 L51.379,13.759 C50.851,14.17 50.04,14.586 49,14.988 L49,10.231 C50.189,9.817 51.201,9.358 52,8.855 L52,12.993 C52,13.145 51.92,13.309 51.771,13.482 Z M39,17.252 L39,12.312 C40.031,12.188 41.032,12.047 42,11.89 L42,16.792 C41.052,16.96 40.054,17.114 39,17.252 Z M44,16.407 L44,11.534 C45.062,11.325 46.066,11.095 47,10.843 L47,15.663 C46.104,15.924 45.095,16.173 44,16.407 Z M37,12.528 L37,17.488 C36.034,17.59 35.034,17.679 34,17.753 L34,12.771 C35.014,12.704 36.016,12.623 37,12.528 Z M17,17.49 L17,12.528 C17.984,12.623 18.986,12.704 20,12.771 L20,17.749 C18.982,17.676 17.978,17.593 17,17.49 Z M15,12.312 L15,17.253 C14.802,17.227 14.596,17.206 14.4,17.179 C14.272,17.161 14.15,17.142 14.024,17.124 C13.446,17.041 12.881,16.952 12.327,16.859 C12.216,16.84 12.109,16.82 12,16.801 L12,11.891 C12.968,12.047 13.969,12.189 15,12.312 Z M25.752,29.739 C25.617,29.729 25.481,29.719 25.347,29.709 C24.707,29.659 24.082,29.604 23.472,29.543 C23.341,29.53 23.21,29.516 23.08,29.503 C23.053,29.5 23.027,29.496 23,29.494 L23,24.528 C23.984,24.623 24.986,24.704 26,24.771 L26,29.755 C25.919,29.749 25.833,29.745 25.752,29.739 Z M19.145,28.992 C18.749,28.929 18.377,28.861 18,28.795 L18,23.891 C18.968,24.048 19.969,24.189 21,24.313 L21,29.259 C20.388,29.178 19.789,29.094 19.214,29.004 C19.191,28.999 19.168,28.995 19.145,28.992 Z M16,23.533 L16,28.406 C14.895,28.169 13.893,27.917 13,27.655 L13,22.842 C13.934,23.094 14.938,23.325 16,23.533 Z M11,22.231 L11,26.982 C9.428,26.375 8.414,25.755 8.084,25.203 L8.017,25.091 C8.011,25.06 8.001,25.027 8,24.996 L8,20.855 C8.799,21.358 9.811,21.817 11,22.231 Z M34.984,24.98 C35.991,24.961 36.998,24.93 38,24.884 L38,29.872 C36.686,29.937 35.35,29.973 34,29.987 L34,24.995 C34.275,24.992 34.55,24.988 34.825,24.983 C34.878,24.982 34.931,24.981 34.984,24.98 Z M47.907,28.817 C47.468,28.893 47.025,28.968 46.57,29.037 C46.309,29.077 46.042,29.115 45.774,29.153 C45.521,29.189 45.258,29.22 45.001,29.253 L45.001,24.312 C46.032,24.188 47.033,24.047 48.001,23.89 L48.001,28.8 C47.969,28.806 47.938,28.812 47.907,28.817 Z M41.136,29.671 C40.763,29.702 40.378,29.722 40,29.749 L40,24.771 C41.014,24.704 42.016,24.624 43,24.528 L43,29.489 C42.419,29.55 41.839,29.611 41.242,29.661 C41.206,29.664 41.172,29.668 41.136,29.671 Z M52.564,27.796 C52.066,27.935 51.539,28.065 51.001,28.192 C50.752,28.25 50.498,28.308 50.238,28.364 C50.161,28.381 50.079,28.396 50.001,28.413 L50.001,23.534 C51.063,23.325 52.067,23.095 53.001,22.843 L53.001,27.674 C52.857,27.714 52.712,27.755 52.564,27.796 Z M57.989,18.065 C57.897,18.744 56.358,19.647 53.611,20.496 C50.073,21.589 44.537,22.59 37.521,22.9 C37.162,22.915 36.804,22.93 36.438,22.942 C36.139,22.952 35.839,22.961 35.534,22.969 C34.706,22.987 33.866,23 33,23 C32.134,23 31.294,22.987 30.466,22.968 C30.162,22.961 29.862,22.951 29.562,22.941 C29.195,22.93 28.837,22.914 28.479,22.899 C21.463,22.589 15.926,21.588 12.389,20.495 C9.664,19.653 8.128,18.757 8.014,18.081 C8.019,18.062 8.019,18.046 8.031,18.022 C8.099,18.039 8.175,18.053 8.244,18.07 C8.635,18.163 9.036,18.253 9.444,18.339 C11.431,18.767 13.633,19.118 15.979,19.386 C15.987,19.386 15.993,19.39 16,19.39 C16.002,19.39 16.004,19.389 16.005,19.389 C17.603,19.571 19.261,19.714 20.963,19.815 C20.976,19.815 20.987,19.822 21,19.822 C21.007,19.822 21.012,19.818 21.019,19.818 C22.244,19.89 23.485,19.943 24.741,19.971 C25.51,19.99 26.265,20 27,20 C27.525,20 28.063,19.994 28.606,19.984 C35.872,19.872 42.606,19.008 47.292,17.669 C47.508,17.608 47.719,17.545 47.927,17.482 C48.054,17.443 48.184,17.405 48.307,17.366 C48.669,17.25 49.016,17.131 49.351,17.007 C49.409,16.985 49.464,16.963 49.522,16.941 C49.805,16.834 50.077,16.723 50.337,16.61 C50.412,16.577 50.489,16.545 50.562,16.512 C50.839,16.387 51.107,16.259 51.355,16.126 C51.467,16.067 51.564,16.006 51.669,15.946 C51.789,15.877 51.909,15.807 52.02,15.736 C52.083,15.696 52.158,15.658 52.218,15.618 C56.695,16.589 57.875,17.651 57.989,18.065 Z M27,2 C43.489,2 51.829,4.596 51.985,6.086 C51.864,6.762 50.329,7.655 47.611,8.495 C44.073,9.588 38.537,10.589 31.521,10.899 C31.162,10.914 30.804,10.929 30.438,10.941 C30.139,10.951 29.839,10.96 29.534,10.968 C28.706,10.987 27.866,11 27,11 C26.134,11 25.294,10.987 24.466,10.968 C24.162,10.961 23.862,10.951 23.562,10.941 C23.195,10.93 22.837,10.914 22.479,10.899 C15.463,10.589 9.926,9.588 6.389,8.495 C3.67,7.655 2.136,6.762 2.015,6.086 C2.171,4.596 10.511,2 27,2 Z M2,12.996 L2,8.855 C2.799,9.358 3.811,9.817 5,10.231 L5,15.019 C3.055,14.29 2.002,13.559 2,12.996 Z M6.844,26.835 C6.859,26.851 6.882,26.865 6.897,26.881 C8.266,28.263 11.101,29.349 14.63,30.159 C14.711,30.178 14.797,30.196 14.879,30.215 C15.138,30.273 15.401,30.33 15.667,30.385 C18.908,31.075 22.777,31.574 26.992,31.821 C26.995,31.821 26.997,31.822 26.999,31.822 C27.001,31.822 27.002,31.821 27.003,31.821 C28.357,31.9 29.742,31.955 31.156,31.979 C31.782,31.992 32.398,32 33,32 C33.69,32 34.398,31.992 35.118,31.975 C36.426,31.948 37.715,31.894 38.986,31.82 C38.991,31.82 38.995,31.823 39,31.823 C39.009,31.823 39.016,31.818 39.025,31.818 C43.251,31.569 47.216,31.065 50.569,30.34 C49.843,30.72 48.849,31.113 47.611,31.496 C43.876,32.65 37.911,33.701 30.33,33.945 C30.105,33.952 29.883,33.96 29.655,33.966 C29.41,33.972 29.161,33.976 28.912,33.981 C28.283,33.991 27.65,34 27,34 C26.134,34 25.294,33.987 24.466,33.968 C24.162,33.961 23.862,33.951 23.562,33.941 C23.195,33.93 22.837,33.914 22.479,33.899 C15.463,33.589 9.926,32.588 6.389,31.495 C3.639,30.645 2.1,29.741 2.011,29.062 C2.122,28.686 3.133,27.745 6.844,26.835 Z M2,35.996 L2,31.855 C2.799,32.358 3.811,32.817 5,33.231 L5,38 L4.429,37.778 L4.417,37.79 C2.847,37.139 2.002,36.5 2,35.996 Z M5,46.996 L5,42.855 C5.799,43.358 6.811,43.817 8,44.231 L8,49.019 C6.055,48.29 5.002,47.559 5,46.996 Z M52,49.019 L52,44.232 C53.189,43.818 54.201,43.359 55,42.856 L55,46.994 C54.999,47.557 53.945,48.289 52,49.019 Z M54.987,40.077 C54.878,40.754 53.342,41.652 50.611,42.496 C47.073,43.589 41.537,44.59 34.521,44.9 C34.162,44.915 33.804,44.93 33.438,44.942 C33.139,44.952 32.839,44.961 32.534,44.969 C31.706,44.987 30.866,45 30,45 C29.134,45 28.293,44.987 27.464,44.968 C27.163,44.961 26.866,44.951 26.569,44.941 C26.2,44.929 25.84,44.914 25.479,44.899 C18.463,44.589 12.927,43.588 9.389,42.495 C6.744,41.678 5.216,40.81 5.024,40.14 C5.322,40.244 5.631,40.345 5.948,40.444 C5.98,40.454 6.012,40.464 6.044,40.473 C6.314,40.556 6.59,40.636 6.873,40.714 C6.98,40.744 7.088,40.774 7.197,40.803 C7.357,40.846 7.521,40.887 7.685,40.929 C11.327,41.862 15.976,42.523 20.995,42.82 C20.997,42.82 20.998,42.821 21,42.821 C21.001,42.821 21.002,42.82 21.003,42.82 C22.553,42.912 24.136,42.969 25.736,42.988 C26.162,42.996 26.585,43 27,43 C27.551,43 28.115,42.993 28.686,42.983 C30.145,42.959 31.585,42.905 32.993,42.821 C32.996,42.821 32.998,42.823 33.001,42.823 C33.006,42.823 33.009,42.82 33.014,42.82 C34.729,42.717 36.389,42.57 37.984,42.387 C37.99,42.387 37.995,42.39 38.001,42.39 C38.023,42.39 38.041,42.379 38.063,42.377 C39.839,42.172 41.523,41.92 43.086,41.627 C43.408,41.568 43.725,41.507 44.039,41.444 C44.109,41.43 44.179,41.416 44.249,41.401 C47.202,40.795 49.758,40.01 51.512,39.037 C51.608,38.985 51.698,38.931 51.789,38.878 C51.9,38.812 52.006,38.745 52.109,38.677 C52.205,38.615 52.316,38.555 52.404,38.492 C54.378,39.196 54.922,39.826 54.987,40.077 Z M55,27.019 L55,22.232 C56.189,21.818 57.201,21.359 58,20.856 L58,24.994 C57.999,25.557 56.945,26.289 55,27.019 Z" id="Shape"></path>
                </g>
            </g>
        </g>
    </g>
</svg>