<?xml version="1.0" encoding="UTF-8"?>
<svg width="64px" height="76px" viewBox="0 0 64 76" version="1.1" xmlns="http://www.w3.org/2000/svg" xmlns:xlink="http://www.w3.org/1999/xlink">
    <!-- Generator: Sketch 48.2 (47327) - http://www.bohemiancoding.com/sketch -->
    <title>security</title>
    <desc>Created with Sketch.</desc>
    <defs></defs>
    <g id="Apple-TV" stroke="none" stroke-width="1" fill="none" fill-rule="evenodd" transform="translate(-931.000000, -3001.000000)">
        <g id="security" transform="translate(931.000000, 3001.000000)" fill="#F8C51C" fill-rule="nonzero">
            <path d="M63.9178523,19.5685596 C63.878751,17.5166685 63.8414271,15.5782786 63.8414271,13.7030239 C63.8414271,12.2338911 62.6481272,11.0428366 61.175431,11.0428366 C49.7738543,11.0428366 41.0930155,7.77328904 33.8571465,0.753232046 C32.8220291,-0.251254687 31.174799,-0.250899995 30.140037,0.753232046 C22.9048791,7.77328904 14.2254621,11.0428366 2.82459636,11.0428366 C1.35225558,11.0428366 0.158600252,12.2338911 0.158600252,13.7030239 C0.158600252,15.5786333 0.121631772,17.5177325 0.0821750299,19.5699784 C-0.28324417,38.6651577 -0.783740507,64.8169272 31.1253892,75.8531577 C31.4083403,75.9510526 31.7033772,76 31.9984141,76 C32.293451,76 32.5888433,75.9510526 32.8714389,75.8531577 C64.7830569,64.8165725 64.2832715,38.6640936 63.9178523,19.5685596 Z M31.9987695,70.5168219 C4.63249719,60.5971607 5.04625979,38.8669772 5.41345632,19.6714202 C5.43549522,18.5193817 5.45682319,17.4028125 5.47175277,16.308234 C16.1499559,15.858485 24.6889637,12.629727 31.9987695,6.27578092 C39.3092863,12.629727 47.849716,15.8588397 58.52863,16.308234 C58.5435596,17.4024578 58.5648876,18.5183177 58.5869265,19.6696467 C58.9537675,38.8659131 59.3671747,60.596806 31.9987695,70.5168219 Z" id="Shape"></path>
            <path d="M40.5253758,28.777444 L27.8735233,41.5907114 L22.4746679,36.1226742 C21.450958,35.0862003 19.7911429,35.0862003 18.7677825,36.1226742 C17.7440725,37.1598561 17.7440725,38.8405864 18.7677825,39.8774143 L26.0200805,47.2226445 C26.5317608,47.7408815 27.2028168,48 27.8735233,48 C28.5442298,48 29.2152858,47.7408815 29.726966,47.2226445 L44.2319117,32.5321841 C45.2559712,31.4953562 45.2559712,29.8142719 44.2322612,28.777798 C43.2089008,27.74097 41.5490857,27.740616 40.5253758,28.777444 Z" id="Shape"></path>
        </g>
    </g>
</svg>