<?xml version="1.0" encoding="UTF-8"?>
<svg width="75px" height="75px" viewBox="0 0 75 75" version="1.1" xmlns="http://www.w3.org/2000/svg" xmlns:xlink="http://www.w3.org/1999/xlink">
    <!-- Generator: Sketch 48.2 (47327) - http://www.bohemiancoding.com/sketch -->
    <title>world</title>
    <desc>Created with Sketch.</desc>
    <defs></defs>
    <g id="Apple-TV" stroke="none" stroke-width="1" fill="none" fill-rule="evenodd" transform="translate(-1281.000000, -3001.000000)">
        <g id="world" transform="translate(1282.000000, 3002.000000)" fill="#F8C51C" fill-rule="nonzero" stroke="#F8C51C">
            <path d="M63.7969655,60.6932069 C69.5161379,54.2478103 73,45.7747759 73,36.5 C73,26.8501552 69.2291724,18.0700172 63.0921379,11.5365172 C63.0921379,11.5365172 63.0921379,11.5352586 63.0921379,11.5352586 C63.0871034,11.5277069 63.0795517,11.5251897 63.0757759,11.5188966 C56.6832414,4.72360345 47.7268966,0.373810345 37.7649138,0.0327241379 L37.7636552,0.0314655172 L37.0525345,0.0125862069 C36.8687759,0.00629310345 36.6850172,0 36.5,0 C36.3149828,0 36.1312241,0.00629310345 35.9474655,0.0125862069 L35.2388621,0.0314655172 L35.2376034,0.0327241379 C25.2756207,0.373810345 16.3192759,4.72360345 9.92674138,11.5188966 C9.9217069,11.5251897 9.91415517,11.5277069 9.91037931,11.5352586 C9.91037931,11.5352586 9.91037931,11.5365172 9.90912069,11.5377759 C3.77082759,18.0700172 0,26.8501552 0,36.5 C0,45.7747759 3.48386207,54.2478103 9.20303448,60.6932069 C9.21058621,60.7045345 9.21058621,60.7171207 9.21939655,60.7284483 C9.24205172,60.7599138 9.27477586,60.7750172 9.29868966,60.8039655 C15.7252069,67.9881724 24.9458621,72.6161207 35.2363448,72.9685345 L35.2376034,72.9697931 L35.9462069,72.9886724 C36.1312241,72.9937069 36.3149828,73 36.5,73 C36.6850172,73 36.8687759,72.9937069 37.0525345,72.9874138 L37.7611379,72.9685345 L37.7623966,72.9672759 C48.0642069,72.6136034 57.294931,67.9768448 63.7214483,60.7775345 C63.7378103,60.7561379 63.7642414,60.7498448 63.7793448,60.7271897 C63.7894138,60.7171207 63.7894138,60.7045345 63.7969655,60.6932069 Z M2.5487069,37.7586207 L17.655931,37.7586207 C17.7981552,43.0939138 18.8402931,48.2781724 20.6955,53.1351897 C17.1159828,54.4303103 13.6937931,56.1672069 10.4868276,58.3345517 C5.77077586,52.7248793 2.83567241,45.5746552 2.5487069,37.7586207 Z M11.1740345,13.8737759 C14.3054828,15.9102241 17.639569,17.5413966 21.1171379,18.7597414 C18.9875517,23.9288966 17.8094828,29.502069 17.655931,35.2413793 L2.5487069,35.2413793 C2.84951724,27.0515345 6.05648276,19.5942069 11.1740345,13.8737759 Z M70.4512931,35.2413793 L55.344069,35.2413793 C55.1905172,29.502069 54.0124483,23.9288966 51.8828621,18.7597414 C55.360431,17.5413966 58.6945172,15.9102241 61.8259655,13.8737759 C66.9435172,19.5942069 70.1504828,27.0515345 70.4512931,35.2413793 Z M35.2413793,18.8327414 C31.6027069,18.7295345 28.0307414,18.187069 24.5796034,17.217931 C27.1308276,11.9845862 30.733,7.26098276 35.2413793,3.3277931 L35.2413793,18.8327414 Z M35.2413793,21.3499828 L35.2413793,35.2413793 L20.1731724,35.2413793 C20.3279828,29.7688966 21.4758448,24.4612931 23.5286552,19.5400862 C27.312069,20.6363448 31.2402241,21.243 35.2413793,21.3499828 Z M37.7586207,21.3499828 C41.7597759,21.243 45.687931,20.6376034 49.4726034,19.5400862 C51.5254138,24.4612931 52.6732759,29.7688966 52.8280862,35.2413793 L37.7586207,35.2413793 L37.7586207,21.3499828 Z M37.7586207,18.8327414 L37.7586207,3.3277931 C42.267,7.26098276 45.8691724,11.9845862 48.4203966,17.217931 C44.9692586,18.187069 41.3972931,18.7295345 37.7586207,18.8327414 Z M50.8596034,16.4526897 C48.4417931,11.3867414 45.0863103,6.77137931 40.9316034,2.81553448 C48.3020862,3.77963793 54.9337586,7.11246552 60.0412414,12.0261207 C57.1413793,13.8662241 54.0653103,15.3463621 50.8596034,16.4526897 Z M22.1403966,16.4526897 C18.9346897,15.3463621 15.8586207,13.8662241 12.9600172,12.0261207 C18.0662414,7.11246552 24.6991724,3.77963793 32.0696552,2.81553448 C27.9136897,6.77137931 24.5582069,11.3867414 22.1403966,16.4526897 Z M20.1731724,37.7586207 L35.2413793,37.7586207 L35.2413793,50.3926552 C31.0791207,50.5034138 27.0011897,51.1528621 23.0818448,52.3321897 C21.3109655,47.731931 20.3153966,42.8170172 20.1731724,37.7586207 Z M35.2413793,52.9098966 L35.2413793,69.6722069 C30.4158276,65.4621207 26.6324138,60.3470862 24.0597931,54.6732241 C27.6682586,53.6096897 31.416431,53.0181379 35.2413793,52.9098966 Z M37.7586207,69.6722069 L37.7586207,52.9098966 C41.583569,53.0168793 45.3317414,53.6096897 48.9402069,54.6719655 C46.3675862,60.3470862 42.5841724,65.4621207 37.7586207,69.6722069 Z M37.7586207,50.3926552 L37.7586207,37.7586207 L52.8268276,37.7586207 C52.6846034,42.8170172 51.6890345,47.731931 49.9168966,52.3334483 C45.9988103,51.1528621 41.9208793,50.5034138 37.7586207,50.3926552 Z M55.344069,37.7586207 L70.4512931,37.7586207 C70.1643276,45.5746552 67.2304828,52.7248793 62.5131724,58.3345517 C59.3062069,56.1672069 55.8840172,54.4303103 52.3045,53.1351897 C54.1609655,48.2781724 55.2018448,43.0939138 55.344069,37.7586207 Z M12.1972931,60.2199655 C15.1751897,58.2414138 18.3456552,56.6505172 21.6583448,55.4611207 C24.1063621,60.9487069 27.620431,65.9492069 32.0683966,70.1844655 C24.3266207,69.1712759 17.3979138,65.5464483 12.1972931,60.2199655 Z M40.9316034,70.1844655 C45.379569,65.9504655 48.8936379,60.9499655 51.3416552,55.4611207 C54.6543448,56.6505172 57.8235517,58.2414138 60.8027069,60.2199655 C55.6020862,65.5464483 48.6733793,69.1712759 40.9316034,70.1844655 Z" id="Shape"></path>
        </g>
    </g>
</svg>